<svg width="1427" height="1428" xmlns="http://www.w3.org/2000/svg" xmlns:xlink="http://www.w3.org/1999/xlink" overflow="hidden"><defs><clipPath id="clip0"><rect x="1914" y="356" width="1427" height="1428"/></clipPath></defs><g clip-path="url(#clip0)" transform="translate(-1914 -356)"><path d="M2379.5 1726.5C2266.83 1726.5 2175.5 1639.59 2175.5 1532.39L2175.5 1264.11C2175.5 1156.91 2084.17 1070 1971.5 1070 2084.17 1070 2175.5 983.092 2175.5 875.886L2175.5 607.614C2175.5 500.408 2266.83 413.5 2379.5 413.5" stroke="#AEBAB5" stroke-width="114.583" stroke-linecap="round" stroke-linejoin="round" stroke-miterlimit="10" fill="none" fill-rule="evenodd"/><path d="M408 1313C295.334 1313 203.999 1229.17 203.999 1125.76L204.001 843.743C204.001 740.332 112.666 656.5-4.17907e-14 656.5 112.666 656.5 204.001 572.668 204.001 469.257L204.001 187.243C204.001 83.8317 295.335-6.26859e-14 408.001-6.26859e-14" stroke="#AEBAB5" stroke-width="114.583" stroke-linecap="round" stroke-linejoin="round" stroke-miterlimit="10" fill="none" fill-rule="evenodd" transform="matrix(-1 0 0 1 3283.5 413.5)"/><path d="M2340 1427.48C2340 1401.81 2360.81 1381 2386.48 1381L2620.52 1381C2646.19 1381 2667 1401.81 2667 1427.48L2667 1514.52C2667 1540.19 2646.19 1561 2620.52 1561L2386.48 1561C2360.81 1561 2340 1540.19 2340 1514.52Z" fill="#63E6BE" fill-rule="evenodd"/><path d="M2340 622.218C2340 601.111 2357.11 584 2378.22 584L2868.78 584C2889.89 584 2907 601.111 2907 622.218L2907 693.782C2907 714.889 2889.89 732 2868.78 732L2378.22 732C2357.11 732 2340 714.889 2340 693.782Z" fill="#AEBAB5" fill-rule="evenodd"/><path d="M2340 889.218C2340 868.111 2357.11 851 2378.22 851L2648.78 851C2669.89 851 2687 868.111 2687 889.218L2687 960.782C2687 981.889 2669.89 999 2648.78 999L2378.22 999C2357.11 999 2340 981.889 2340 960.782Z" fill="#AEBAB5" fill-rule="evenodd"/><path d="M2755 889.218C2755 868.111 2772.11 851 2793.22 851L2868.78 851C2889.89 851 2907 868.111 2907 889.218L2907 960.782C2907 981.889 2889.89 999 2868.78 999L2793.22 999C2772.11 999 2755 981.889 2755 960.782Z" fill="#63E6BE" fill-rule="evenodd"/><path d="M2340 1154.22C2340 1133.11 2357.11 1116 2378.22 1116L2868.78 1116C2889.89 1116 2907 1133.11 2907 1154.22L2907 1225.78C2907 1246.89 2889.89 1264 2868.78 1264L2378.22 1264C2357.11 1264 2340 1246.89 2340 1225.78Z" fill="#AEBAB5" fill-rule="evenodd"/></g></svg>
