<svg width="1427" height="1428" xmlns="http://www.w3.org/2000/svg" xmlns:xlink="http://www.w3.org/1999/xlink" overflow="hidden"><defs><clipPath id="clip0"><rect x="250" y="356" width="1427" height="1428"/></clipPath></defs><g clip-path="url(#clip0)" transform="translate(-250 -356)"><path d="M715.5 1726.5C602.833 1726.5 511.499 1639.59 511.499 1532.39L511.501 1264.11C511.501 1156.91 420.167 1070 307.5 1070 420.167 1070 511.501 983.092 511.501 875.886L511.501 607.614C511.501 500.408 602.835 413.5 715.501 413.5" stroke="#F2F2F2" stroke-width="114.583" stroke-linecap="round" stroke-linejoin="round" stroke-miterlimit="10" fill="none" fill-rule="evenodd"/><path d="M408 1313C295.334 1313 203.999 1229.17 203.999 1125.76L204.001 843.743C204.001 740.332 112.666 656.5-4.17907e-14 656.5 112.666 656.5 204.001 572.668 204.001 469.257L204.001 187.243C204.001 83.8317 295.335-6.26859e-14 408.001-6.26859e-14" stroke="#F2F2F2" stroke-width="114.583" stroke-linecap="round" stroke-linejoin="round" stroke-miterlimit="10" fill="none" fill-rule="evenodd" transform="matrix(-1 0 0 1 1619.5 413.5)"/><path d="M677 1419.22C677 1398.11 694.111 1381 715.218 1381L965.782 1381C986.889 1381 1004 1398.11 1004 1419.22L1004 1490.78C1004 1511.89 986.889 1529 965.782 1529L715.218 1529C694.111 1529 677 1511.89 677 1490.78Z" fill="#63E6BE" fill-rule="evenodd"/><path d="M676 622.218C676 601.111 693.111 584 714.218 584L1204.78 584C1225.89 584 1243 601.111 1243 622.218L1243 693.781C1243 714.888 1225.89 731.999 1204.78 731.999L714.218 731.999C693.111 731.999 676 714.888 676 693.781Z" fill="#F2F2F2" fill-rule="evenodd"/><path d="M676 889.218C676 868.111 693.111 851 714.218 851L984.782 851C1005.89 851 1023 868.111 1023 889.218L1023 960.782C1023 981.889 1005.89 999 984.782 999L714.218 999C693.111 999 676 981.889 676 960.782Z" fill="#F2F2F2" fill-rule="evenodd"/><path d="M1091 889.218C1091 868.111 1108.11 851 1129.22 851L1204.78 851C1225.89 851 1243 868.111 1243 889.218L1243 960.782C1243 981.889 1225.89 999 1204.78 999L1129.22 999C1108.11 999 1091 981.889 1091 960.782Z" fill="#63E6BE" fill-rule="evenodd"/><path d="M676 1154.22C676 1133.11 693.111 1116 714.218 1116L1204.78 1116C1225.89 1116 1243 1133.11 1243 1154.22L1243 1225.78C1243 1246.89 1225.89 1264 1204.78 1264L714.218 1264C693.111 1264 676 1246.89 676 1225.78Z" fill="#F2F2F2" fill-rule="evenodd"/></g></svg>
